<svg width="48" height="48" viewBox="0 0 48 48" fill="none" xmlns="http://www.w3.org/2000/svg">
<g clip-path="url(#clip0)">
<path d="M37.556 25.5996C37.5497 25.5996 37.5434 25.5997 37.5371 25.5998C36.9291 25.5986 36.3431 25.8272 35.8965 26.2398L30.1184 31.5732C29.8233 31.8473 29.4353 31.9997 29.0325 31.9998H20.9296C20.3405 31.9998 19.8629 31.5223 19.8629 30.9332C19.8629 30.344 20.3405 29.8665 20.9296 29.8665H26.5371C27.7153 29.8665 28.6704 28.9114 28.6704 27.7332C28.6704 26.555 27.7153 25.5998 26.5371 25.5998H17.8352C16.5356 25.5994 15.2622 25.9648 14.1605 26.6542L12.2667 27.8398V27.1998H8V39.9998H12.2667V38.9332H23.5109C23.8639 38.9332 24.2164 38.9062 24.5653 38.8526L28.944 38.179C30.4023 37.9578 31.7511 37.2743 32.792 36.2292L39.2912 29.7289C39.7465 29.2764 40.0017 28.6604 40 28.0185C39.9931 26.6756 38.8988 25.5927 37.556 25.5996ZM11.2 38.9332H9.06667V28.2665H11.2V38.9332ZM38.5365 28.9758L38.5371 28.9748L32.0379 35.475C31.1571 36.3593 30.0158 36.9377 28.7819 37.1252L24.4032 37.7988C24.1079 37.8439 23.8097 37.8666 23.5109 37.8665H12.2667V29.0953L14.7264 27.5582C15.6585 26.9752 16.7358 26.6662 17.8352 26.6665H26.5371C27.1262 26.6665 27.6037 27.144 27.6037 27.7332C27.6037 28.3223 27.1262 28.7998 26.5371 28.7998H20.9296C19.7514 28.7998 18.7963 29.755 18.7963 30.9332C18.7963 32.1114 19.7514 33.0665 20.9296 33.0665H29.0325C29.7031 33.0672 30.3493 32.8146 30.8416 32.3593L36.6203 27.026C36.8825 26.7878 37.2261 26.6595 37.5803 26.6676C38.3269 26.6673 38.9325 27.2724 38.9328 28.019C38.9329 28.3779 38.7903 28.7221 38.5365 28.9758Z" fill="#FFC726"/>
<path d="M31.8933 13.5466C31.7926 13.4124 31.6345 13.3333 31.4667 13.3333H26.4944L24.4955 8.33542C24.3861 8.06195 24.0757 7.92888 23.8022 8.03828C23.6667 8.09248 23.5593 8.19988 23.5051 8.33542L21.5056 13.3333H16.5333C16.2388 13.3333 16 13.5721 16 13.8666C16 14.0345 16.0791 14.1926 16.2133 14.2933L20.1637 17.256L18.1653 22.7493C18.0647 23.0261 18.2075 23.3321 18.4843 23.4328C18.659 23.4963 18.8542 23.4642 18.9995 23.3482L23.9813 19.3621L28.4453 23.3296C28.6656 23.5252 29.0027 23.5052 29.1983 23.2849C29.3178 23.1503 29.3613 22.9646 29.3141 22.7909L27.8101 17.2762L31.7867 14.2933C32.0223 14.1166 32.0701 13.7822 31.8933 13.5466ZM26.88 16.64C26.705 16.7712 26.6279 16.9959 26.6853 17.2069L27.8133 21.3429L24.3547 18.2682C24.1605 18.0955 23.8702 18.0879 23.6672 18.2501L19.8176 21.3296L21.3019 17.249C21.3821 17.0281 21.3082 16.7808 21.12 16.64L18.1333 14.4H21.8667C22.0849 14.4 22.2812 14.2672 22.3621 14.0645L24 9.96902L25.6379 14.0645C25.7188 14.2672 25.9151 14.4 26.1333 14.4H29.8667L26.88 16.64Z" fill="#FFC726"/>
<path d="M18.5116 9.22281L17.7573 9.97705L19.8907 12.1104L20.6449 11.3562L18.5116 9.22281Z" fill="#FFC726"/>
<path d="M29.4888 9.22259L27.3555 11.356L28.1097 12.1102L30.2431 9.97683L29.4888 9.22259Z" fill="#FFC726"/>
<path d="M18.1331 17.6001H14.9331V18.6668H18.1331V17.6001Z" fill="#FFC726"/>
<path d="M33.0662 17.6001H29.8662V18.6668H33.0662V17.6001Z" fill="#FFC726"/>
<path d="M24.5349 20.7998H23.4683V23.9998H24.5349V20.7998Z" fill="#FFC726"/>
</g>
<defs>
<clipPath id="clip0">
<rect width="32" height="32" fill="white" transform="translate(8 8)"/>
</clipPath>
</defs>
</svg>
