<svg width="48" height="48" viewBox="0 0 48 48" fill="none" xmlns="http://www.w3.org/2000/svg">
<g clip-path="url(#clip0)">
<path d="M21.5748 9.46438C21.4579 9.34813 21.2973 9.28125 21.1323 9.28125C20.9679 9.28125 20.8067 9.34813 20.6904 9.46438C20.5742 9.58063 20.5073 9.74187 20.5073 9.90625C20.5073 10.0706 20.5742 10.2319 20.6904 10.3481C20.8067 10.4644 20.9679 10.5312 21.1323 10.5312C21.2973 10.5312 21.4579 10.4644 21.5748 10.3481C21.6911 10.2319 21.7573 10.0706 21.7573 9.90625C21.7573 9.74187 21.6911 9.58063 21.5748 9.46438Z" fill="#FFC726"/>
<path d="M30.0598 19.6766L29.542 17.0508C29.3309 15.9798 28.8107 15.0063 28.0376 14.2355L27.1522 13.3525V9.90625C27.1522 9.56106 26.8724 9.28125 26.5272 9.28125C26.182 9.28125 25.9022 9.56106 25.9022 9.90625V13.6119C25.9022 13.778 25.9683 13.9372 26.0859 14.0545L27.155 15.1205C27.7513 15.7153 28.1527 16.4663 28.3157 17.2926L28.8335 19.9184C28.8537 20.0209 28.8323 20.1248 28.7732 20.211C28.7142 20.2972 28.6249 20.3547 28.522 20.3728C28.323 20.4083 28.1287 20.2815 28.0805 20.0848L27.8129 18.9936C27.7186 18.6091 27.365 18.3643 26.9719 18.412C26.5789 18.4595 26.2937 18.7813 26.2937 19.1771V24.2609C26.2937 24.4616 26.1304 24.6248 25.9298 24.6248C25.7454 24.6248 25.5929 24.4868 25.5694 24.3088V21.6541C25.5694 21.3089 25.2896 21.0291 24.9444 21.0291C24.9438 21.0291 24.9432 21.0291 24.9427 21.0291C24.9421 21.0291 24.9415 21.0291 24.9409 21.0291C24.5957 21.0291 24.3159 21.3089 24.3159 21.6541V24.2609C24.3159 24.295 24.3174 24.3288 24.3194 24.3623V25.1949C24.3194 25.3955 24.1562 25.5587 23.9555 25.5587C23.7549 25.5587 23.5917 25.3955 23.5917 25.1949V24.3619C23.5937 24.3284 23.5952 24.2949 23.5952 24.2609V21.6541C23.5952 21.3089 23.3154 21.0291 22.9702 21.0291C22.9696 21.0291 22.969 21.0291 22.9684 21.0291C22.9679 21.0291 22.9672 21.0291 22.9667 21.0291C22.6215 21.0291 22.3417 21.3089 22.3417 21.6541V24.3086C22.3182 24.4868 22.1657 24.6249 21.9812 24.6249C21.7806 24.6249 21.6174 24.4616 21.6174 24.261V23.3286C21.6194 23.2952 21.6209 23.2616 21.6209 23.2277V21.6541C21.6209 21.3089 21.3411 21.0291 20.9959 21.0291C20.9953 21.0291 20.9947 21.0291 20.9941 21.0291C20.9936 21.0291 20.9929 21.0291 20.9924 21.0291C20.6472 21.0291 20.3674 21.3089 20.3674 21.6541V23.2753C20.3439 23.4534 20.1914 23.5916 20.0069 23.5916C19.8063 23.5916 19.6431 23.4283 19.6431 23.2277V21.0383V19.555V17.7322C19.6431 16.6026 20.0836 15.5412 20.8835 14.7435L21.5745 14.0545C21.6921 13.9373 21.7582 13.778 21.7582 13.612V12.1351C21.7582 11.7899 21.4784 11.5101 21.1332 11.5101C20.788 11.5101 20.5082 11.7899 20.5082 12.1351V13.3525L20.0009 13.8584C18.9641 14.8922 18.3931 16.268 18.3931 17.7322V19.5549V21.0382V23.2276C18.3931 24.1175 19.1171 24.8415 20.0069 24.8415C20.1616 24.8415 20.3111 24.8192 20.4529 24.7783C20.6691 25.4151 21.2722 25.8747 21.9812 25.8747C22.1481 25.8747 22.3091 25.8493 22.4606 25.8021C22.701 26.3918 23.2803 26.8087 23.9554 26.8087C24.6305 26.8087 25.21 26.3919 25.4505 25.8021C25.602 25.8494 25.763 25.8748 25.9298 25.8748C26.8197 25.8748 27.5437 25.1508 27.5437 24.2609V21.3495C27.8838 21.578 28.3085 21.6797 28.7392 21.6039C29.1755 21.527 29.5538 21.2832 29.8043 20.9176C30.0548 20.5521 30.1455 20.1114 30.0598 19.6766Z" fill="#FFC726"/>
<path d="M23.5671 32.325C23.4905 32.1923 23.397 32.0735 23.2899 31.9698C23.733 31.4641 23.8293 30.7122 23.4749 30.0983C23.3917 29.9542 23.2894 29.8277 23.173 29.7202C23.3038 29.5522 23.401 29.3582 23.4578 29.1463C23.5694 28.7298 23.5121 28.295 23.2965 27.9216C22.959 27.337 22.3085 27.0438 21.6777 27.1303C21.6422 26.9738 21.5831 26.8218 21.5005 26.6788C21.285 26.3055 20.937 26.0385 20.5206 25.9269C20.1042 25.8153 19.6693 25.8725 19.2959 26.0882L16.7745 27.5438C16.8024 27.1351 16.6782 26.7165 16.3971 26.3815C16.1122 26.042 15.712 25.8362 15.2702 25.802C14.8287 25.7682 14.4014 25.9097 14.0677 26.2013L12.0525 27.9627C11.2306 28.6811 10.6476 29.6183 10.3665 30.6732L10.0447 31.8815L8.31261 32.8815C8.01367 33.054 7.91123 33.4363 8.08386 33.7352C8.19961 33.9357 8.40967 34.0478 8.62567 34.0478C8.73167 34.0478 8.83917 34.0208 8.93761 33.964L10.8944 32.8342C11.0382 32.7512 11.143 32.6143 11.1858 32.4539L11.5745 30.995C11.7913 30.1812 12.2411 29.458 12.8752 28.9038L14.8904 27.1424C14.969 27.0736 15.0695 27.0402 15.1739 27.0483C15.2781 27.0563 15.3724 27.1048 15.4396 27.1849C15.5698 27.34 15.5572 27.5712 15.411 27.7113L14.5997 28.4887C14.3139 28.7625 14.2789 29.1911 14.5165 29.5078C14.7542 29.8245 15.1755 29.9107 15.5183 29.7126L19.921 27.1707C20.0051 27.1221 20.1032 27.1092 20.1971 27.1343C20.291 27.1595 20.3695 27.2197 20.4181 27.3039C20.4667 27.3881 20.4796 27.4862 20.4545 27.58C20.4325 27.6622 20.3824 27.7313 20.314 27.7802L18.0255 29.1014C17.7265 29.274 17.6241 29.6562 17.7967 29.9552C17.797 29.9557 17.7974 29.9561 17.7977 29.9566C17.798 29.9571 17.7982 29.9577 17.7985 29.9582C17.971 30.2571 18.3532 30.3595 18.6522 30.1869L20.9099 28.8835C20.9393 28.8665 20.9678 28.8484 20.9959 28.8298L21.717 28.4135C21.8907 28.3132 22.1137 28.3729 22.2141 28.5467C22.3144 28.7205 22.2547 28.9435 22.0809 29.0438L21.3595 29.4603C21.3295 29.4753 21.2997 29.4908 21.2704 29.5078L19.0127 30.8112C18.7137 30.9838 18.6113 31.366 18.7839 31.665C18.8074 31.7054 18.836 31.7435 18.8677 31.7778C18.9876 31.9083 19.1552 31.9806 19.3275 31.9806C19.4335 31.9806 19.541 31.9536 19.6394 31.8968L21.9382 30.5695C22.1042 30.5007 22.3001 30.5637 22.3924 30.7235C22.4927 30.8972 22.433 31.1202 22.2592 31.2206L21.4521 31.6866C21.422 31.7016 21.392 31.7173 21.3626 31.7342L19.9998 32.521C19.7009 32.6936 19.5984 33.0758 19.771 33.3748C19.8823 33.5666 20.0925 33.6904 20.3146 33.6904C20.4206 33.6904 20.5281 33.6634 20.6265 33.6066L22.0307 32.7959C22.1044 32.7653 22.1854 32.7594 22.2637 32.7804C22.3576 32.8056 22.436 32.8658 22.4847 32.95C22.585 33.1237 22.5252 33.3467 22.3515 33.4471L20.3484 34.6035L17.5922 36.1948C16.6139 36.7597 15.4744 36.9088 14.3837 36.6149L13.4415 36.361C13.2811 36.3177 13.1102 36.3402 12.9664 36.4232L11.0097 37.553C10.7107 37.7255 10.6083 38.1078 10.7809 38.4067C10.8967 38.6072 11.1067 38.7193 11.3227 38.7193C11.4287 38.7193 11.5362 38.6923 11.6347 38.6355L13.3667 37.6355L14.0584 37.8219C15.4721 38.2028 16.9491 38.0095 18.2172 37.2774L19.7956 36.3661C19.7956 36.3661 19.7957 36.3661 19.7957 36.366L20.9734 35.6861L21.0803 35.6243L22.9764 34.5296C23.7471 34.0847 24.012 33.0957 23.5671 32.325Z" fill="#FFC726"/>
<path d="M39.6874 32.8811L37.9553 31.8811L37.7709 31.1888C37.394 29.774 36.488 28.5916 35.22 27.8595L32.4638 26.2681L30.4608 25.1117C30.0874 24.8961 29.6525 24.8389 29.2362 24.9505C28.8198 25.062 28.4717 25.3291 28.2562 25.7024C28.179 25.8361 28.1237 25.9766 28.0882 26.1195C27.8478 26.0712 27.5978 26.0782 27.3542 26.1436C26.9378 26.2551 26.5897 26.5222 26.3742 26.8955C26.2917 27.0385 26.2326 27.1905 26.1971 27.3469C25.5663 27.2605 24.9158 27.5538 24.5783 28.1383C24.2408 28.7228 24.312 29.4328 24.7024 29.9359C24.5846 30.0449 24.4825 30.1721 24.4 30.315C23.955 31.0857 24.22 32.0747 24.9907 32.5196L27.512 33.9754C27.1442 34.1557 26.8436 34.4726 26.694 34.8835C26.5425 35.2999 26.5643 35.7493 26.7557 36.1491C26.947 36.5488 27.2833 36.8478 27.7027 36.9909L30.2356 37.8554C31.2688 38.2081 32.372 38.2443 33.426 37.9603L34.6333 37.6349L36.3654 38.6349C36.4638 38.6917 36.5713 38.7188 36.6773 38.7187C36.8933 38.7187 37.1034 38.6066 37.2191 38.4061C37.3918 38.1072 37.2893 37.725 36.9904 37.5524L35.0336 36.4226C34.8898 36.3396 34.7189 36.3171 34.5585 36.3605L33.1008 36.7533C32.2877 36.9725 31.4365 36.9445 30.6393 36.6724L28.1064 35.8079C28.0075 35.7741 27.9282 35.7036 27.8831 35.6094C27.838 35.5151 27.8328 35.4091 27.8686 35.311C27.9378 35.1207 28.1444 35.0161 28.3388 35.0726L29.4176 35.3865C29.7978 35.4973 30.1864 35.3132 30.3418 34.949C30.4972 34.5849 30.3612 34.177 30.0183 33.979L25.6157 31.4371C25.4419 31.3368 25.3822 31.1138 25.4825 30.94C25.5311 30.8558 25.6095 30.7956 25.7034 30.7705C25.7818 30.7495 25.8628 30.7553 25.9364 30.7859L28.2355 32.1133C28.3339 32.1701 28.4413 32.1971 28.5474 32.1971C28.7195 32.1971 28.887 32.125 29.0068 31.9946C29.0388 31.9603 29.0675 31.9221 29.091 31.8815C29.2637 31.5825 29.1612 31.2003 28.8623 31.0277L26.6047 29.7243C26.5752 29.7073 26.5452 29.6916 26.515 29.6765L25.794 29.2603C25.6203 29.16 25.5605 28.937 25.6609 28.7632C25.7095 28.679 25.7879 28.6188 25.8818 28.5936C25.9758 28.5685 26.0738 28.5815 26.1579 28.63L26.879 29.0463C26.907 29.065 26.9356 29.083 26.965 29.1L29.2226 30.4035C29.321 30.4603 29.4285 30.4873 29.5345 30.4873C29.7067 30.4873 29.8742 30.4151 29.994 30.2847C30.026 30.2504 30.0545 30.2122 30.0782 30.1716C30.2508 29.8727 30.1483 29.4905 29.8494 29.3179L27.5608 27.9966C27.4925 27.9477 27.4425 27.8786 27.4204 27.7965C27.3953 27.7026 27.4082 27.6045 27.4568 27.5203C27.5054 27.4361 27.5838 27.3759 27.6778 27.3508C27.7716 27.3256 27.8697 27.3385 27.9539 27.3871L28.7613 27.8533C28.7892 27.8718 28.8177 27.8898 28.847 27.9068L30.2098 28.6936C30.3083 28.7505 30.4157 28.7775 30.5218 28.7775C30.6938 28.7775 30.8614 28.7053 30.9812 28.575C31.0132 28.5405 31.0417 28.5024 31.0653 28.4618C31.238 28.1629 31.1355 27.7806 30.8366 27.6081L29.4326 26.7975C29.29 26.6881 29.2467 26.487 29.3388 26.3272C29.3875 26.243 29.4659 26.1828 29.5598 26.1576C29.6538 26.1326 29.7517 26.1454 29.8359 26.194L31.732 27.2888L31.839 27.3505L33.0167 28.0305C33.0167 28.0305 33.0167 28.0305 33.0167 28.0305L34.5951 28.9418C35.5735 29.5067 36.2723 30.4189 36.5631 31.5105L36.8144 32.4533C36.8571 32.6138 36.962 32.7506 37.1058 32.8336L39.0626 33.9634C39.161 34.0202 39.2685 34.0472 39.3745 34.0472C39.5905 34.0472 39.8006 33.9351 39.9163 33.7346C40.0888 33.436 39.9863 33.0537 39.6874 32.8811Z" fill="#FFC726"/>
</g>
<defs>
<clipPath id="clip0">
<rect width="32" height="32" fill="white" transform="translate(8 8)"/>
</clipPath>
</defs>
</svg>
