<svg width="48" height="48" viewBox="0 0 48 48" fill="none" xmlns="http://www.w3.org/2000/svg">
<g clip-path="url(#clip0)">
<path d="M26.7828 8C19.4944 8 13.5654 13.929 13.5654 21.2173C13.5654 23.538 14.1711 25.7183 15.2258 27.6161L8.20406 34.6384C7.93198 34.9105 7.93198 35.3501 8.20406 35.6221L12.3779 39.796C12.5135 39.9319 12.6915 39.9998 12.8698 39.9998C13.0478 39.9998 13.2258 39.9319 13.3613 39.796L20.3833 32.7743C22.2818 33.8287 24.4618 34.4346 26.7828 34.4346C27.0246 34.4346 27.2682 34.4278 27.5158 34.4139C27.8537 37.5491 30.5147 39.9998 33.7392 39.9998C37.1917 39.9998 40.0001 37.1907 40.0001 33.739C40.0001 31.7383 39.0531 29.9581 37.5874 28.811C39.1421 26.5991 40.0001 23.934 40.0001 21.2173C40.0001 13.929 34.0708 8 26.7828 8ZM12.8698 38.3205L9.67925 35.1303L15.9778 28.8321C16.8487 30.0675 17.9333 31.1514 19.168 32.0216L12.8698 38.3205ZM38.6088 33.739C38.6088 36.4244 36.4237 38.6085 33.7392 38.6085C31.0545 38.6085 28.8697 36.4244 28.8697 33.739C28.8697 31.0539 31.0545 28.8695 33.7392 28.8695C36.4237 28.8695 38.6088 31.0539 38.6088 33.739ZM36.4006 28.0807C35.5915 27.6979 34.6913 27.4782 33.7392 27.4782C30.5307 27.4782 27.8823 29.9048 27.5236 33.0175C27.2722 33.0338 27.0253 33.0433 26.7828 33.0433C24.4278 33.0433 22.2373 32.3436 20.3918 31.1527C20.1996 31.0294 20.0138 30.8966 19.8297 30.7624C19.6619 30.6398 19.4931 30.5209 19.3321 30.3902C19.1527 30.2448 18.9849 30.0862 18.8141 29.9302C18.5552 29.6938 18.3083 29.4469 18.0715 29.1881C17.9153 29.0169 17.756 28.8481 17.6092 28.667C17.4791 28.507 17.3599 28.3382 17.2383 28.1711C17.1035 27.986 16.9703 27.7995 16.8467 27.6069C15.6565 25.7628 14.9567 23.5723 14.9567 21.2173C14.9567 14.6963 20.2617 9.3913 26.7828 9.3913C33.3034 9.3913 38.6088 14.6963 38.6088 21.2173C38.6088 23.6772 37.8224 26.0882 36.4006 28.0807Z" fill="#FFC726"/>
<path d="M26.7841 12.1738C21.7974 12.1738 17.7407 16.2309 17.7407 21.2173C17.7407 21.6014 18.0515 21.9129 18.4364 21.9129C18.8209 21.9129 19.132 21.6014 19.132 21.2173C19.132 16.9982 22.5647 13.5651 26.7841 13.5651C27.1686 13.5651 27.4798 13.2536 27.4798 12.8695C27.4798 12.4856 27.1686 12.1738 26.7841 12.1738Z" fill="#FFC726"/>
</g>
<defs>
<clipPath id="clip0">
<rect width="32" height="32" fill="white" transform="translate(8 8)"/>
</clipPath>
</defs>
</svg>
