<svg width="48" height="48" viewBox="0 0 48 48" fill="none" xmlns="http://www.w3.org/2000/svg">
<path d="M10.6445 10.6449C10.5993 10.6927 10.5637 10.7487 10.5395 10.8099C10.5131 10.8697 10.4995 10.9344 10.4995 10.9999C10.4995 11.0653 10.5131 11.13 10.5395 11.1899C10.5625 11.2517 10.5983 11.3079 10.6445 11.3549C10.7393 11.4478 10.8668 11.4999 10.9995 11.4999C11.1323 11.4999 11.2598 11.4478 11.3545 11.3549C11.4475 11.2601 11.4996 11.1326 11.4996 10.9999C11.4996 10.8671 11.4475 10.7396 11.3545 10.6449C11.2578 10.5556 11.1311 10.5061 10.9995 10.5061C10.868 10.5061 10.7412 10.5556 10.6445 10.6449Z" fill="#FFC726"/>
<path d="M12.3095 10.5398C12.2477 10.5627 12.1915 10.5985 12.1445 10.6448C12.0516 10.7396 11.9995 10.867 11.9995 10.9998C11.9995 11.1326 12.0516 11.26 12.1445 11.3548C12.2145 11.4253 12.3038 11.4734 12.4012 11.4929C12.4986 11.5125 12.5996 11.5026 12.6913 11.4645C12.783 11.4264 12.8613 11.3619 12.9162 11.2791C12.9711 11.1963 13.0001 11.0991 12.9995 10.9998C12.9976 10.8674 12.9458 10.7407 12.8545 10.6448C12.7836 10.5764 12.6944 10.53 12.5976 10.5114C12.5009 10.4927 12.4008 10.5026 12.3095 10.5398Z" fill="#FFC726"/>
<path d="M13.8095 10.5398C13.7483 10.564 13.6923 10.5996 13.6445 10.6448C13.5516 10.7396 13.4995 10.8671 13.4995 10.9998C13.4995 11.1326 13.5516 11.2601 13.6445 11.3548C13.6932 11.399 13.749 11.4345 13.8095 11.4598C13.8696 11.4855 13.9342 11.499 13.9995 11.4998C14.0654 11.5005 14.1307 11.488 14.1917 11.4631C14.2526 11.4382 14.308 11.4014 14.3546 11.3549C14.4011 11.3083 14.4379 11.2529 14.4628 11.192C14.4877 11.131 14.5002 11.0657 14.4995 10.9998C14.4976 10.8675 14.4458 10.7407 14.3545 10.6448C14.283 10.5775 14.1938 10.5319 14.0973 10.5133C14.0008 10.4947 13.901 10.5039 13.8095 10.5398Z" fill="#FFC726"/>
<path d="M22.5 17.5H15.5V18.5H22.5V17.5Z" fill="#FFC726"/>
<path d="M22.5 20.5H15.5V21.5H22.5V20.5Z" fill="#FFC726"/>
<path d="M25 23.5H15.5V24.5H25V23.5Z" fill="#FFC726"/>
<path d="M22 26.5H15.5V27.5H22V26.5Z" fill="#FFC726"/>
<path d="M19.5 29.5H15.5V30.5H19.5V29.5Z" fill="#FFC726"/>
<path d="M18.5 32.5H15.5V33.5H18.5V32.5Z" fill="#FFC726"/>
<path d="M37.0855 15C36.834 14.9993 36.5848 15.0485 36.3525 15.1448C36.1202 15.2411 35.9092 15.3826 35.732 15.561L34 17.293V10.5C34 10.1022 33.842 9.72064 33.5607 9.43934C33.2794 9.15804 32.8978 9 32.5 9H10.5C10.1022 9 9.72064 9.15804 9.43934 9.43934C9.15804 9.72064 9 10.1022 9 10.5V37.5C9 37.8978 9.15804 38.2794 9.43934 38.5607C9.72064 38.842 10.1022 39 10.5 39H32.5C32.8978 39 33.2794 38.842 33.5607 38.5607C33.842 38.2794 34 37.8978 34 37.5V22.707L38.439 18.268C38.7069 18.0003 38.8894 17.6592 38.9633 17.2879C39.0373 16.9165 38.9994 16.5315 38.8545 16.1816C38.7096 15.8317 38.4642 15.5327 38.1493 15.3224C37.8344 15.1121 37.4642 14.9999 37.0855 15ZM10 10.5C10 10.3674 10.0527 10.2402 10.1464 10.1464C10.2402 10.0527 10.3674 10 10.5 10H32.5C32.6326 10 32.7598 10.0527 32.8536 10.1464C32.9473 10.2402 33 10.3674 33 10.5V12H10V10.5ZM33 37.5C33 37.6326 32.9473 37.7598 32.8536 37.8536C32.7598 37.9473 32.6326 38 32.5 38H10.5C10.3674 38 10.2402 37.9473 10.1464 37.8536C10.0527 37.7598 10 37.6326 10 37.5V13H33V18.293L30 21.293V19.793L24.707 14.5H13V36.5H30V26.707L33 23.707V37.5ZM21.063 30.23L19.7095 34.2905L23.77 32.937L25.207 31.5L29 27.707V35.5H14V15.5H24V20.5H29V22.293L22.5 28.793L21.063 30.23ZM22.5 30.207L23.793 31.5L23.23 32.063L21.2905 32.7095L21.937 30.77L22.5 30.207ZM25 16.207L28.293 19.5H25V16.207ZM24.5 30.793L23.207 29.5L35 17.707L36.293 19L24.5 30.793ZM37.732 17.561L37 18.293L35.707 17L36.439 16.268C36.5232 16.1801 36.6241 16.1099 36.7359 16.0615C36.8476 16.0131 36.9678 15.9875 37.0896 15.9862C37.2113 15.9849 37.3321 16.0079 37.4448 16.0539C37.5575 16.0998 37.6599 16.1679 37.746 16.254C37.8321 16.3401 37.9002 16.4425 37.9461 16.5552C37.9921 16.6679 38.0151 16.7887 38.0138 16.9104C38.0125 17.0322 37.9869 17.1524 37.9385 17.2641C37.8901 17.3759 37.8199 17.4768 37.732 17.561Z" fill="#FFC726"/>
</svg>
