<svg width="48" height="48" viewBox="0 0 48 48" fill="none" xmlns="http://www.w3.org/2000/svg">
<g clip-path="url(#clip0)">
<path d="M36.9901 18.1295C37.2722 18.1295 37.5008 17.9008 37.5008 17.6188C37.5008 17.3368 37.2722 17.1082 36.9901 17.1082C36.7081 17.1082 36.4795 17.3368 36.4795 17.6188C36.4795 17.9008 36.7081 18.1295 36.9901 18.1295Z" fill="#FFC726"/>
<path d="M36.9901 15.2406C37.2722 15.2406 37.5008 15.0119 37.5008 14.7299C37.5008 14.4479 37.2722 14.2192 36.9901 14.2192C36.7081 14.2192 36.4795 14.4479 36.4795 14.7299C36.4795 15.0119 36.7081 15.2406 36.9901 15.2406Z" fill="#FFC726"/>
<path d="M38.3901 21.1979C39.4317 19.9932 40 18.472 40 16.8634C40 15.0901 39.3095 13.4231 38.0555 12.1692C36.8017 10.9154 35.1346 10.2249 33.3614 10.2249C31.7531 10.2249 30.2322 10.7929 29.0277 11.834L28.891 11.6994C28.6901 11.5014 28.3667 11.5038 28.1688 11.7047C27.9709 11.9056 27.9733 12.229 28.1742 12.4269L28.3077 12.5584C27.2823 13.7583 26.7229 15.2678 26.7229 16.8634C26.7229 17.0688 26.7326 17.2726 26.7509 17.4747L12.5799 33.313C12.3992 33.5151 12.4077 33.8229 12.5993 34.0147L14.0437 35.459L13.7533 35.7494C12.6722 36.8307 10.9129 36.8306 9.8317 35.7495C8.75053 34.6683 8.75053 32.909 9.8317 31.8278L19.4229 22.2366C20.9023 20.7572 20.9023 18.35 19.4229 16.8706C17.9435 15.3912 15.5363 15.3912 14.057 16.8706L8.14823 22.7793L8.87037 23.5015L14.7791 17.5928C15.8603 16.5117 17.6196 16.5116 18.7007 17.5928C19.7819 18.6739 19.7819 20.4332 18.7007 21.5144L9.10956 31.1056C7.63015 32.585 7.63015 34.9922 9.10956 36.4716C9.84927 37.2113 10.8209 37.5811 11.7925 37.5811C12.7641 37.5811 13.7358 37.2113 14.4755 36.4716L14.7658 36.1812L16.2102 37.6255C16.3096 37.7249 16.4404 37.775 16.5714 37.775C16.6929 37.775 16.8147 37.7319 16.9118 37.6449L30.4949 25.4917C30.4968 25.4899 32.7499 23.474 32.7499 23.474C32.9521 23.4923 33.156 23.502 33.3614 23.502C34.9567 23.502 36.4658 22.9428 37.6657 21.9177L37.7997 22.0525C37.8996 22.1528 38.0306 22.2029 38.1616 22.2029C38.2919 22.2029 38.4223 22.1533 38.5219 22.0541C38.7218 21.8551 38.7225 21.5318 38.5235 21.332L38.3901 21.1979ZM16.5908 36.5617L15.1274 35.0984C15.1265 35.0974 13.6631 33.6341 13.6631 33.6341L24.9633 21.0045C25.4139 21.9198 26.0094 22.7513 26.7415 23.4835C27.4736 24.2155 28.3051 24.811 29.2205 25.2616L16.5908 36.5617ZM30.0496 24.5197C29.0843 24.1031 28.2154 23.5129 27.4636 22.7613C26.7118 22.0094 26.1217 21.1405 25.7051 20.1753L26.9905 18.7387C27.2992 19.793 27.8688 20.7591 28.6673 21.5577C29.4657 22.3561 30.4318 22.9257 31.4861 23.2344L30.0496 24.5197ZM33.3614 22.4807C31.861 22.4806 30.4504 21.8963 29.3895 20.8354C28.3285 19.7744 27.7442 18.3638 27.7442 16.8634C27.7442 15.5384 28.2005 14.2838 29.0378 13.2778L30.1143 14.3384C30.2138 14.4364 30.3432 14.4853 30.4727 14.4853C30.6046 14.4853 30.7365 14.4345 30.8365 14.3331C31.0344 14.1322 31.032 13.8089 30.8311 13.6109L29.7588 12.5544C30.7677 11.7079 32.0288 11.2462 33.3614 11.2462C34.8618 11.2462 36.2725 11.8304 37.3334 12.8914C38.3944 13.9523 38.9787 15.363 38.9787 16.8634C38.9787 18.1981 38.5153 19.4611 37.6663 20.4708L32.279 15.0588C32.08 14.8588 31.7567 14.8581 31.5568 15.0572C31.3569 15.2561 31.3562 15.5795 31.5552 15.7793L36.9424 21.1912C35.9371 22.0258 34.6844 22.4807 33.3614 22.4807Z" fill="#FFC726"/>
</g>
<defs>
<clipPath id="clip0">
<rect width="32" height="32" fill="white" transform="translate(8 8)"/>
</clipPath>
</defs>
</svg>
