<svg width="48" height="48" viewBox="0 0 48 48" fill="none" xmlns="http://www.w3.org/2000/svg">
<path d="M18.8814 11.1997H14.4014V12.4797H18.8814V11.1997Z" fill="#FFC726"/>
<path d="M23.3614 11.1997H20.1614V12.4797H23.3614V11.1997Z" fill="#FFC726"/>
<path d="M15.6814 13.7598H14.4014V15.0398H15.6814V13.7598Z" fill="#FFC726"/>
<path d="M23.3607 13.7598H16.9607V15.0398H23.3607V13.7598Z" fill="#FFC726"/>
<path d="M21.4414 35.5203H20.1614V36.8003H21.4414V35.5203Z" fill="#FFC726"/>
<path d="M27.8405 35.5203H22.7205V36.8003H27.8405V35.5203Z" fill="#FFC726"/>
<path d="M37.44 25.9201V22.4552L34.3469 19.3621C34.6822 18.8558 34.88 18.251 34.88 17.6001C34.88 15.8357 33.4445 14.4001 31.68 14.4001C29.9155 14.4001 28.48 15.8357 28.48 17.6001C28.48 19.3646 29.9155 20.8001 31.68 20.8001C32.3309 20.8001 32.9357 20.6024 33.4419 20.267L36.16 22.9851V25.9201H8V33.6001H11.1149L11.8451 39.4395L13.1149 39.2808L12.4051 33.6001L11.9251 29.7601H36.0749L35.5949 33.6001L34.8851 39.2808L36.1549 39.4395L36.8851 33.6001H40V25.9201H37.44ZM31.68 19.5201C30.6214 19.5201 29.76 18.6587 29.76 17.6001C29.76 16.5416 30.6214 15.6801 31.68 15.6801C32.7386 15.6801 33.6 16.5416 33.6 17.6001C33.6 18.6587 32.7386 19.5201 31.68 19.5201ZM38.72 32.3201H37.0451L37.5251 28.4801H10.4749L10.9549 32.3201H9.28V27.2001H38.72V32.3201Z" fill="#FFC726"/>
<path d="M16.9607 32.3198V39.9998H31.0407V32.3198H16.9607ZM29.7607 38.7198H18.2407V33.5998H29.7607V38.7198Z" fill="#FFC726"/>
<path d="M10.5591 8V22.345L14.664 18.24H27.1991V8H10.5591ZM25.9191 16.96H14.1341L11.8391 19.255V9.28H25.9191V16.96Z" fill="#FFC726"/>
</svg>
