<svg width="48" height="48" viewBox="0 0 48 48" fill="none" xmlns="http://www.w3.org/2000/svg">
<path d="M35.6755 22.7811C36.6126 22.1226 37.2331 21.0272 37.2331 19.7925C37.2331 17.7728 35.5995 16.1392 33.5797 16.1392C31.56 16.1392 29.9264 17.7728 29.9264 19.7925C29.9264 21.0272 30.5406 22.1226 31.484 22.7811C30.6799 23.0597 29.9454 23.4902 29.3249 24.0474C28.4701 23.3193 27.4634 22.7621 26.3617 22.4328C27.6977 21.6224 28.5968 20.1471 28.5968 18.4692C28.5968 15.9113 26.5263 13.8408 23.9683 13.8408C21.4104 13.8408 19.3399 15.9176 19.3399 18.4692C19.3399 20.1471 20.2327 21.6224 21.575 22.4328C20.486 22.7621 19.4919 23.3129 18.6435 24.0284C18.023 23.4839 17.3011 23.0597 16.5097 22.7874C17.4468 22.1289 18.0673 21.0335 18.0673 19.7989C18.0673 17.7791 16.4337 16.1455 14.4139 16.1455C12.3941 16.1455 10.7606 17.7791 10.7606 19.7989C10.7606 21.0335 11.3748 22.1289 12.3182 22.7874C9.80451 23.6548 8 26.0419 8 28.8468V29.2646C8 29.2773 8.01266 29.29 8.02533 29.29H15.7689C15.7246 29.6382 15.6992 29.9991 15.6992 30.36V30.7906C15.6992 32.6521 17.2062 34.159 19.0677 34.159H28.8817C30.7432 34.159 32.2501 32.6521 32.2501 30.7906V30.36C32.2501 29.9991 32.2248 29.6382 32.1805 29.29H39.9747C39.9873 29.29 40 29.2773 40 29.2646V28.8468C39.9873 26.0355 38.1892 23.6485 35.6755 22.7811ZM30.9395 19.7862C30.9395 18.3299 32.1235 17.1459 33.5797 17.1459C35.036 17.1459 36.22 18.3299 36.22 19.7862C36.22 21.2235 35.0613 22.3948 33.6304 22.4265C33.6114 22.4265 33.5987 22.4265 33.5797 22.4265C33.5607 22.4265 33.5481 22.4265 33.5291 22.4265C32.0918 22.4012 30.9395 21.2298 30.9395 19.7862ZM20.3403 18.4692C20.3403 16.4748 21.9612 14.8539 23.9557 14.8539C25.9501 14.8539 27.571 16.4748 27.571 18.4692C27.571 20.394 26.0578 21.9706 24.1646 22.0783C24.095 22.0783 24.0253 22.0783 23.9557 22.0783C23.886 22.0783 23.8164 22.0783 23.7467 22.0783C21.8536 21.9706 20.3403 20.394 20.3403 18.4692ZM11.7546 19.7862C11.7546 18.3299 12.9387 17.1459 14.3949 17.1459C15.8512 17.1459 17.0352 18.3299 17.0352 19.7862C17.0352 21.2235 15.8765 22.3948 14.4456 22.4265C14.4266 22.4265 14.4139 22.4265 14.3949 22.4265C14.3759 22.4265 14.3633 22.4265 14.3443 22.4265C12.9133 22.4012 11.7546 21.2298 11.7546 19.7862ZM15.9462 28.2706H9.02572C9.31065 25.5733 11.59 23.4585 14.3569 23.4396C14.3696 23.4396 14.3823 23.4396 14.3949 23.4396C14.4076 23.4396 14.4203 23.4396 14.4329 23.4396C15.7499 23.4459 16.9529 23.9334 17.8837 24.7249C16.9719 25.7126 16.2944 26.9283 15.9462 28.2706ZM31.2244 30.7906C31.2244 32.0885 30.167 33.1459 28.869 33.1459H19.055C17.757 33.1459 16.6996 32.0885 16.6996 30.7906V30.36C16.6996 26.4281 19.8401 23.2116 23.7467 23.0976C23.8164 23.104 23.8924 23.104 23.962 23.104C24.0317 23.104 24.1076 23.104 24.1773 23.0976C28.0839 23.2116 31.2244 26.4281 31.2244 30.36V30.7906ZM31.9778 28.2706C31.6296 26.9346 30.9648 25.7379 30.0594 24.7502C30.9964 23.9398 32.2121 23.4522 33.5417 23.4396C33.5544 23.4396 33.5671 23.4396 33.5797 23.4396C33.5924 23.4396 33.6051 23.4396 33.6177 23.4396C36.3846 23.4585 38.664 25.5733 38.949 28.2706H31.9778Z" fill="#FFC726"/>
</svg>
