<svg width="48" height="48" viewBox="0 0 48 48" fill="none" xmlns="http://www.w3.org/2000/svg">
<g clip-path="url(#clip0)">
<path d="M37.8117 35.782C38.1891 35.3152 38.3961 34.7337 38.3984 34.1335V33.0668C38.3984 31.5941 37.2045 30.4001 35.7317 30.4001C34.259 30.4001 33.0651 31.5941 33.0651 33.0668V34.1335C33.0674 34.7337 33.2743 35.3152 33.6517 35.782C32.9895 35.9051 32.3987 36.2749 31.9984 36.8167C31.5981 36.2749 31.0073 35.9051 30.3451 35.782C30.7225 35.3152 30.9294 34.7337 30.9317 34.1335V33.0668C30.9317 31.5941 29.7378 30.4001 28.2651 30.4001C26.7923 30.4001 25.5984 31.5941 25.5984 33.0668V34.1335C25.6007 34.7337 25.8077 35.3152 26.1851 35.782C25.5229 35.9051 24.932 36.2749 24.5317 36.8167C24.1315 36.2749 23.5406 35.9051 22.8784 35.782C23.2558 35.3152 23.4627 34.7337 23.4651 34.1335V33.0668C23.4651 31.5941 22.2711 30.4001 20.7984 30.4001C19.3257 30.4001 18.1317 31.5941 18.1317 33.0668V34.1335C18.1341 34.7337 18.341 35.3152 18.7184 35.782C17.4537 36.0134 16.5341 37.1144 16.5317 38.4001V40.0001H17.5984V38.4001C17.5984 37.5165 18.3147 36.8001 19.1984 36.8001H22.3984C23.2821 36.8001 23.9984 37.5165 23.9984 38.4001V40.0001H25.0651V38.4001C25.0651 37.5165 25.7814 36.8001 26.6651 36.8001H29.8651C30.7487 36.8001 31.4651 37.5165 31.4651 38.4001V40.0001H32.5317V38.4001C32.5317 37.5165 33.2481 36.8001 34.1317 36.8001H37.3317C38.2154 36.8001 38.9317 37.5165 38.9317 38.4001V40.0001H39.9984V38.4001C39.996 37.1144 39.0765 36.0134 37.8117 35.782ZM22.3984 34.1335C22.3984 35.0171 21.6821 35.7335 20.7984 35.7335C19.9147 35.7335 19.1984 35.0171 19.1984 34.1335V33.0668C19.1984 32.1831 19.9147 31.4668 20.7984 31.4668C21.6821 31.4668 22.3984 32.1831 22.3984 33.0668V34.1335ZM29.8651 34.1335C29.8651 35.0171 29.1487 35.7335 28.2651 35.7335C27.3814 35.7335 26.6651 35.0171 26.6651 34.1335V33.0668C26.6651 32.1831 27.3814 31.4668 28.2651 31.4668C29.1487 31.4668 29.8651 32.1831 29.8651 33.0668V34.1335ZM37.3317 34.1335C37.3317 35.0171 36.6154 35.7335 35.7317 35.7335C34.8481 35.7335 34.1317 35.0171 34.1317 34.1335V33.0668C34.1317 32.1831 34.8481 31.4668 35.7317 31.4668C36.6154 31.4668 37.3317 32.1831 37.3317 33.0668V34.1335Z" fill="#FFC726"/>
<path d="M20.9951 18.7038C20.9329 18.6793 20.8668 18.6667 20.8 18.6666H18.6667C18.4424 18.6665 18.2421 18.8068 18.1653 19.0175L17.6 20.5722L17.5813 20.5215C17.1743 19.4097 16.1174 18.6693 14.9333 18.6666H14.9195C15.2724 18.2077 15.4647 17.6455 15.4667 17.0666V15.9999C15.4667 14.5272 14.2727 13.3333 12.8 13.3333C11.3273 13.3333 10.1333 14.5272 10.1333 15.9999V17.0666C10.1353 17.6455 10.3276 18.2077 10.6805 18.6666H10.6667C9.19467 18.6683 8.00173 19.8613 8 21.3333V27.7333C8 28.0278 8.2388 28.2666 8.53333 28.2666H10.1333V33.4399L9.15627 34.9039C8.9928 35.1489 9.05887 35.4801 9.30393 35.6436C9.3916 35.7021 9.4946 35.7333 9.6 35.7333H16C16.2945 35.7333 16.5334 35.4945 16.5334 35.2C16.5334 35.0946 16.5022 34.9916 16.4437 34.9039L15.4667 33.4399V23.5925L15.6011 23.8591C16.14 24.9363 17.45 25.3726 18.5271 24.8337C19.0045 24.5949 19.3776 24.1893 19.576 23.6938L20.4421 21.529L21.2955 19.3957C21.4036 19.1217 21.2691 18.8119 20.9951 18.7038ZM11.2 15.9999C11.2 15.1163 11.9163 14.3999 12.8 14.3999C13.6837 14.3999 14.4 15.1163 14.4 15.9999V17.0666C14.4 17.9503 13.6837 18.6666 12.8 18.6666C11.9163 18.6666 11.2 17.9503 11.2 17.0666V15.9999ZM10.1333 27.1999H9.06667V26.1333H10.1333V27.1999ZM13.3333 34.6666V28.2666H12.2667V34.6666H10.5968L11.1104 33.8959C11.1687 33.8082 11.1998 33.7053 11.2 33.5999V27.1999H14.4V33.5999C14.4002 33.7053 14.4313 33.8082 14.4896 33.8959L15.0032 34.6666H13.3333ZM18.5856 23.3002C18.3567 23.8713 17.7081 24.1488 17.1369 23.9199C16.8841 23.8185 16.6771 23.6281 16.5552 23.3845L15.4133 21.0949C15.285 20.8297 14.966 20.7189 14.7009 20.8473C14.5149 20.9373 14.3977 21.1267 14.4 21.3333V26.1333H11.2V21.3333C11.2 21.0387 10.9612 20.7999 10.6667 20.7999C10.3721 20.7999 10.1333 21.0387 10.1333 21.3333V25.0666H9.06667V21.3333C9.06667 20.4496 9.783 19.7333 10.6667 19.7333H12.2667V25.0666H13.3333V19.7333H14.9333C15.6691 19.7347 16.3259 20.1948 16.5787 20.8858L17.0987 22.3157C17.1991 22.5925 17.5051 22.7355 17.7819 22.6351C17.9305 22.5812 18.0474 22.4642 18.1013 22.3157L18.2645 21.8666H19.1589L18.5856 23.3002ZM19.5856 20.7999H18.6523L19.04 19.7333H20.0123L19.5856 20.7999Z" fill="#FFC726"/>
<path d="M39.4651 11.2C39.7596 11.2 39.9984 10.9612 39.9984 10.6667V8.53333C39.9984 8.2388 39.7596 8 39.4651 8H17.0651C16.7705 8 16.5317 8.2388 16.5317 8.53333V10.6667C16.5317 10.9612 16.7705 11.2 17.0651 11.2H17.5984V17.6H18.6651V11.2H37.8651V22.9333H20.7984V24H27.7317V26.3573L24.2651 28.3371L24.7941 29.2629L27.7317 27.5856V29.3333H28.7984V27.5856L31.7317 29.2629L32.2608 28.3371L28.7984 26.3573V24H39.9984V22.9333H38.9317V11.2H39.4651ZM17.5984 10.1333V9.06667H38.9317V10.1333H17.5984Z" fill="#FFC726"/>
<path d="M34.2636 13.8827L32.1303 13.3494L31.8711 14.384L32.87 14.6336L28.822 17.4672L26.4673 15.5835C26.2809 15.4346 26.0182 15.4276 25.8241 15.5664L22.0908 18.2331L22.7106 19.1003L26.1159 16.6683L28.4673 18.5499C28.6524 18.6982 28.9132 18.7065 29.1073 18.5702L33.6007 15.4246V16.5334H34.6673V14.4C34.6673 14.1554 34.5009 13.9422 34.2636 13.8827Z" fill="#FFC726"/>
</g>
<defs>
<clipPath id="clip0">
<rect width="32" height="32" fill="white" transform="translate(8 8)"/>
</clipPath>
</defs>
</svg>
