<svg width="24" height="24" viewBox="0 0 24 24" fill="none" xmlns="http://www.w3.org/2000/svg">
<path fill-rule="evenodd" clip-rule="evenodd" d="M20.587 7.74463C20.712 7.31563 20.587 6.99963 19.992 6.99963H18.023C17.522 6.99963 17.291 7.27263 17.166 7.57363C17.166 7.57363 16.164 10.0846 14.746 11.7166C14.287 12.1886 14.078 12.3386 13.828 12.3386C13.702 12.3386 13.521 12.1886 13.521 11.7596V7.74463C13.521 7.22963 13.376 6.99963 12.959 6.99963H9.864C9.551 6.99963 9.363 7.23963 9.363 7.46563C9.363 7.95363 10.072 8.06663 10.146 9.44063V12.4246C10.146 13.0786 10.031 13.1976 9.78 13.1976C9.113 13.1976 7.489 10.6746 6.526 7.78763C6.337 7.22663 6.148 6.99963 5.645 6.99963H3.675C3.112 6.99963 3 7.27263 3 7.57363C3 8.10963 3.668 10.7716 6.108 14.2926C7.736 16.6966 10.028 17.9996 12.115 17.9996C13.366 17.9996 13.521 17.7106 13.521 17.2116V15.3946C13.521 14.8156 13.64 14.7006 14.036 14.7006C14.328 14.7006 14.829 14.8506 15.997 16.0096C17.333 17.3836 17.553 17.9996 18.304 17.9996H20.273C20.836 17.9996 21.117 17.7106 20.955 17.1396C20.777 16.5696 20.139 15.7436 19.294 14.7646C18.835 14.2066 18.146 13.6056 17.938 13.3046C17.646 12.9186 17.729 12.7466 17.938 12.4036C17.938 12.4036 20.337 8.92563 20.587 7.74463Z" fill="white"/>
</svg>
